# xmcd
#
# Track frame offsets:
# 150
# 27734
# 48411
# 67210
# 91656
# 115204
# 137947
# 166379
# 189595
# 215356
# 238325
# 262622
# 284850
# 307803
#
# Disc length: 4435 seconds
#
#
# Revision: 0
# Processed by: cddbd v1.5.2PL0 Copyright (c) Steve Scherf et al.
# Submitted via: FreeRIP 2.944 
#
DISCID=d311510e
DTITLE=LAmour-Sackett02 - Far-Blue-Mt8
DYEAR=1876
DGENRE=Booty Bass
TTITLE0=801
TTITLE1=802
TTITLE2=803
TTITLE3=804
TTITLE4=805
TTITLE5=806
TTITLE6=807
TTITLE7=808
TTITLE8=809
TTITLE9=810
TTITLE10=811
TTITLE11=812
TTITLE12=813
TTITLE13=814
EXTD=To the Far Blue Mountains by Louis A'mour\nread by John Curless - Sacketts 1976\nRandom House Inc 8 CDs -  western=booty
EXTT0=
EXTT1=
EXTT2=
EXTT3=
EXTT4=
EXTT5=
EXTT6=
EXTT7=
EXTT8=
EXTT9=
EXTT10=
EXTT11=
EXTT12=
EXTT13=
PLAYORDER=
